<mxfile host="app.diagrams.net" modified="2022-05-25T08:41:11.403Z" agent="5.0 (Windows NT 10.0; Win64; x64) AppleWebKit/537.36 (KHTML, like Gecko) Chrome/101.0.4951.67 Safari/537.36" etag="IfKchcDseOJS00z15nDl" version="18.1.1" type="github">
  <diagram id="1R2kEKC6la7ISiCKplBR" name="Page-1">
    <mxGraphModel dx="965" dy="597" grid="1" gridSize="10" guides="1" tooltips="1" connect="1" arrows="1" fold="1" page="1" pageScale="1" pageWidth="850" pageHeight="1100" math="0" shadow="0">
      <root>
        <mxCell id="0" />
        <mxCell id="1" parent="0" />
        <mxCell id="2u4G7c4Pcr-FfqxoIeHw-2" value="" style="rounded=0;whiteSpace=wrap;html=1;fillColor=none;strokeColor=#d3d3d3;strokeWidth=2;" vertex="1" parent="1">
          <mxGeometry x="10" y="320" width="350" height="560" as="geometry" />
        </mxCell>
        <mxCell id="2u4G7c4Pcr-FfqxoIeHw-6" value="&lt;font color=&quot;#ff1414&quot;&gt;Dịch vụ cung cấp cho người dân&lt;/font&gt;" style="text;html=1;strokeColor=none;fillColor=none;align=left;verticalAlign=middle;whiteSpace=wrap;rounded=0;" vertex="1" parent="1">
          <mxGeometry x="10" y="320" width="120" height="30" as="geometry" />
        </mxCell>
      </root>
    </mxGraphModel>
  </diagram>
</mxfile>
